<?xml version="1.0" standalone="no"?><!DOCTYPE svg PUBLIC "-//W3C//DTD SVG 1.1//EN" "http://www.w3.org/Graphics/SVG/1.1/DTD/svg11.dtd"><svg t="1751789177085" class="icon" viewBox="0 0 1024 1024" version="1.1" xmlns="http://www.w3.org/2000/svg" p-id="827" data-spm-anchor-id="a313x.manage_type_mylikes.0.i4.747d3a819USFYt" xmlns:xlink="http://www.w3.org/1999/xlink" width="256" height="256"><path d="M621.568 371.2c134.144 73.21600001 276.48 122.88 264.192 284.672-10.24 132.096-118.784 238.08-251.392 244.736-155.648 7.68-212.992-128.512-276.992-264.192-36.35199999-76.8-129.536-331.776-168.96-441.344-6.656-18.43200001 12.288-35.328 30.208-27.136 97.28 48.128 317.44 156.16 402.944 203.264z" fill="#5A97DF" p-id="828" data-spm-anchor-id="a313x.manage_type_mylikes.0.i1.747d3a819USFYt" class="selected"></path><path d="M893.952 635.904c0 6.65600001-0.512 13.312-1.024 20.48-10.75200001 136.704-121.856 244.736-258.56 251.904C479.744 915.968 417.28 783.36 356.86399999 654.848l-7.16799998-15.36c-36.352-77.312-130.56-334.848-169.47200001-441.856-4.096-11.264-1.02399999-23.552 8.192-31.744 9.216-8.192 21.504-9.728 32.768-4.608 92.672 45.568 317.44 156.16 403.968 203.264 16.896 9.216 34.304 18.432 50.688 26.62400001 112.12800001 58.368 218.112 113.152 218.112 244.73599999z m-699.904-449.024c0 1.53600001 0.512 3.072 1.024 5.12 38.912 107.008 132.608 363.52 168.96 440.32l7.168 15.36c60.928 129.536 118.272 251.904 262.656 244.736 129.024-6.144 233.984-108.544 244.224-237.568 10.752-136.192-91.136-188.92800001-208.896-250.368-16.896-8.704-34.304-17.92-51.2-27.136-86.528-47.104-310.784-157.696-403.456-203.264-5.12-2.56-11.264-2.048-15.87199999 2.048-3.072 3.584-4.608 7.168-4.60800001 10.752z" fill="#45CB9C" p-id="829" data-spm-anchor-id="a313x.manage_type_mylikes.0.i5.747d3a819USFYt" class=""></path><path d="M622.08 429.568c105.472 57.34400001 218.112 96.768 207.872 224.256-8.192 104.448-93.696 187.392-198.144 193.024-122.368 6.14399999-167.936-101.37599999-218.624-208.38399999-28.672-60.416-101.888-261.632-133.12-347.64800001-5.11999999-14.336 9.728-28.16 23.552-20.992 77.312 37.376 250.88 122.88 318.464 159.744z" fill="#5A97DF" p-id="830" data-spm-anchor-id="a313x.manage_type_mylikes.0.i3.747d3a819USFYt" class="selected"></path><path d="M835.584 637.952c0 5.12 0 10.752-0.512 15.872-8.704 107.52-95.744 192-203.264 197.63199999C510.464 857.6 463.872 757.76 414.208 652.28799999l-5.632-12.28799999c-28.672-60.92799999-102.912-263.68-133.632-348.16000001-3.072-8.704-1.024-17.91999999 6.144-24.06399999 6.656-6.144 16.384-7.68 24.576-3.584 72.704 35.84 249.856 122.88 318.464 160.25599999 13.312 7.168 27.136 14.336 39.936 20.99200001 88.576 46.08 171.51999999 89.6 171.52 192.512z m-551.424-353.28c0 1.53600001 0 2.56 0.512 4.096 30.72 83.968 104.448 286.72 133.12 347.136l5.632 12.288c48.128 102.4 93.184 199.168 207.872 193.536 102.4-5.12 185.344-86.016 193.536-187.904 8.704-108.032-71.68-149.504-164.864-198.14400001-13.31200001-6.656-26.624-13.824-40.448-21.50399999-68.096-37.376-245.248-124.416-317.95199999-160.256-5.632-2.56-10.24-1.02399999-13.31200001 2.048-2.048 1.536-4.096 4.608-4.096 8.704z" fill="#45CB9C" p-id="831" data-spm-anchor-id="a313x.manage_type_mylikes.0.i6.747d3a819USFYt" class=""></path><path d="M545.792 755.712l16.896-68.096c1.02399999-5.12 0-10.752-3.584-14.336l-46.592-52.736c-8.704-10.24-2.56-25.6 10.752-26.624l70.144-5.12c5.12-0.512 10.24-3.072 12.8-7.68l35.84-60.416c6.656-11.264 23.552-10.24 28.672 2.048l26.112 65.024c2.048 5.12 6.144 8.704 11.26399999 9.728l68.60800001 15.36c12.8 3.072 16.896 19.456 6.656 28.16L729.60000001 686.08c-4.096 3.584-6.144 8.704-5.63200001 13.824l6.656 69.632c1.024 13.31200001-13.31200001 22.016-24.576 15.35999999l-59.392-37.37599999c-4.608-2.56-10.24-3.072-14.848-1.024l-64.512 28.16c-11.776 4.608-24.576-6.144-21.504-18.944z" fill="#45CB9C" p-id="832" data-spm-anchor-id="a313x.manage_type_mylikes.0.i0.747d3a819USFYt" class=""></path><path d="M1173.63938425 455.19720179c0 0.24755291 0 0.49510583-0.12377644 0.74265872-0.49510583 0.86643519-1.6090939 1.36154102-2.47552912 0.86643521l-112.88412734-54.2140875c-0.86643519-0.49510583-1.36154102-1.6090939-0.8664352-2.47552909 0.49510583-0.86643519 1.6090939-1.36154102 2.47552913-0.86643518l112.88412732 54.21408747c0.61888228 0.37132938 0.99021163 1.1139881 0.99021168 1.73287037zM1089.1000652 513.74346524c0 0.74265874-0.49510583 1.48531747-1.23776455 1.73287038-0.99021163 0.37132938-1.9804233-0.1237765-2.35175265-1.11398811l-18.93779772-54.21408749c-0.37132938-0.99021163 0.1237765-1.9804233 1.11398813-2.35175265 0.99021163-0.37132938 1.9804233 0.1237765 2.35175265 1.11398806L1088.97628872 513.12458297c0.1237765 0.24755291 0.1237765 0.37132938 0.12377648 0.61888224z" fill="#1296db" p-id="833"></path><path d="M-161.58542891 408.39283316m1e-8 5.1921587a5.19215872 5.19215872 0 1 0 0-10.38431741 5.19215872 5.19215872 0 1 0 0 10.38431741Z" fill="#2E66FF" p-id="834"></path></svg>